# Blender v2.79 (sub 1) OBJ File: 'Crayon.blend'
# www.blender.org
mtllib Eraser.mtl
o Cube_Cube.002
v -0.983285 0.393420 1.661525
v -0.940536 0.423685 1.692221
v -0.970764 0.414821 1.683230
v -0.983285 0.453655 1.540170
v -0.940536 0.496403 1.545714
v -0.970764 0.483882 1.544091
v -0.983285 0.436012 1.607039
v -0.940536 0.475105 1.626443
v -0.970764 0.463655 1.620760
v -0.983285 -0.393420 -1.661525
v -0.940536 -0.423685 -1.692221
v -0.970764 -0.414821 -1.683230
v -0.983285 -0.453655 -1.540170
v -0.940536 -0.496403 -1.545714
v -0.970764 -0.483882 -1.544091
v -0.983285 -0.436012 -1.607039
v -0.940536 -0.475105 -1.626443
v -0.970764 -0.463655 -1.620760
v 0.983285 0.453655 1.540170
v 0.940536 0.496403 1.545714
v 0.970764 0.483882 1.544091
v 0.983285 0.393420 1.661525
v 0.940536 0.423685 1.692221
v 0.970764 0.414821 1.683230
v 0.983285 0.436012 1.607039
v 0.940536 0.475105 1.626443
v 0.970764 0.463655 1.620760
v 0.983285 -0.453655 -1.540170
v 0.940536 -0.496403 -1.545714
v 0.970764 -0.483882 -1.544091
v 0.983285 -0.393420 -1.661525
v 0.940536 -0.423685 -1.692221
v 0.970764 -0.414821 -1.683230
v 0.983285 -0.436012 -1.607039
v 0.940536 -0.475105 -1.626443
v 0.970764 -0.463655 -1.620760
v -0.983285 -0.453655 2.242193
v -0.940536 -0.496403 2.247551
v -0.970764 -0.483882 2.245982
v -0.983285 -0.403942 2.266868
v -0.940536 -0.382361 2.304156
v -0.970764 -0.388682 2.293234
v -0.983285 -0.444541 2.277977
v -0.940536 -0.481124 2.307544
v -0.970764 -0.470409 2.298884
v -0.983285 -0.437954 2.281247
v -0.940536 -0.439382 2.328262
v -0.970764 -0.438964 2.314492
v -0.983285 0.453655 -2.242193
v -0.940536 0.496403 -2.247551
v -0.970764 0.483882 -2.245982
v -0.983285 0.403942 -2.266868
v -0.940536 0.382361 -2.304156
v -0.970764 0.388682 -2.293234
v -0.983285 0.444541 -2.277977
v -0.940536 0.481124 -2.307544
v -0.970764 0.470409 -2.298884
v -0.983285 0.437954 -2.281247
v -0.940536 0.439382 -2.328262
v -0.970764 0.438964 -2.314492
v 0.983285 -0.403942 2.266868
v 0.940536 -0.382361 2.304156
v 0.970764 -0.388682 2.293234
v 0.983285 -0.453655 2.242193
v 0.940536 -0.496403 2.247551
v 0.970764 -0.483882 2.245982
v 0.983285 -0.437954 2.281247
v 0.940536 -0.439382 2.328262
v 0.970764 -0.438964 2.314492
v 0.983285 -0.444541 2.277977
v 0.940536 -0.481124 2.307544
v 0.970764 -0.470409 2.298884
v 0.983285 0.403942 -2.266868
v 0.940536 0.382361 -2.304156
v 0.970764 0.388682 -2.293234
v 0.983285 0.453655 -2.242193
v 0.940536 0.496403 -2.247551
v 0.970764 0.483882 -2.245982
v 0.983285 0.437954 -2.281247
v 0.940536 0.439382 -2.328262
v 0.970764 0.438964 -2.314492
v 0.983285 0.444541 -2.277977
v 0.940536 0.481124 -2.307544
v 0.970764 0.470409 -2.298884
vt 0.317874 0.020030
vt 0.011440 0.020030
vt 0.011440 0.010069
vt 0.317874 0.010069
vt 0.670070 0.135306
vt 0.672944 0.124195
vt 0.679883 0.115142
vt 0.809776 0.014559
vt 0.815317 0.012170
vt 0.816390 0.012714
vt 0.817875 0.018659
vt 0.817874 0.647130
vt 0.815001 0.658241
vt 0.808062 0.667294
vt 0.678169 0.767877
vt 0.672628 0.770266
vt 0.671555 0.769722
vt 0.670070 0.763777
vt 0.401965 0.682345
vt 0.401965 0.985929
vt 0.389008 0.986932
vt 0.389008 0.683348
vt 0.011440 0.650310
vt 0.317875 0.650310
vt 0.317875 0.663733
vt 0.011440 0.663733
vt 0.224362 0.988973
vt 0.224362 0.685389
vt 0.647189 0.650349
vt 0.340755 0.650349
vt 0.340755 0.020070
vt 0.647189 0.020070
vt 0.020121 0.681407
vt 0.184768 0.683448
vt 0.184768 0.987031
vt 0.020121 0.984991
vt 0.197724 0.684451
vt 0.197724 0.988035
vt 0.214475 0.988490
vt 0.214475 0.684907
vt 0.210757 0.986884
vt 0.210757 0.683301
vt 0.010234 0.985473
vt 0.010234 0.681889
vt 0.647190 0.660310
vt 0.340755 0.660310
vt 0.006516 0.987079
vt 0.006516 0.683495
vt 0.340755 0.006646
vt 0.647189 0.006646
vt 0.665146 0.134655
vt 0.668441 0.121916
vt 0.006516 0.662794
vt 0.006516 0.650046
vt 0.840755 0.647130
vt 0.843629 0.658241
vt 0.839126 0.660520
vt 0.835831 0.647781
vt 0.322799 0.650046
vt 0.322799 0.662794
vt 0.676397 0.111536
vt 0.388640 0.677979
vt 0.400945 0.677026
vt 0.850568 0.667294
vt 0.847082 0.670900
vt 0.400945 0.990366
vt 0.388640 0.991319
vt 0.822799 0.647781
vt 0.819504 0.660520
vt 0.652114 0.007585
vt 0.652114 0.020334
vt 0.988560 0.135306
vt 0.985686 0.124195
vt 0.990189 0.121916
vt 0.993484 0.134655
vt 0.335831 0.020334
vt 0.335831 0.007585
vt 0.811548 0.670900
vt 0.184399 0.679060
vt 0.196705 0.680013
vt 0.978747 0.115142
vt 0.982233 0.111536
vt 0.196705 0.993354
vt 0.184399 0.992401
vt 0.987075 0.769722
vt 0.988560 0.763777
vt 0.993484 0.764406
vt 0.991289 0.773196
vt 0.335831 0.658866
vt 0.335831 0.650083
vt 0.820604 0.009240
vt 0.822799 0.018030
vt 0.652114 0.650083
vt 0.652114 0.658866
vt 0.986002 0.770266
vt 0.986166 0.775790
vt 0.335831 0.661445
vt 0.340755 0.663733
vt 0.815481 0.006646
vt 0.212994 0.678378
vt 0.215794 0.679588
vt 0.980461 0.767877
vt 0.977975 0.772258
vt 0.224513 0.993354
vt 0.215794 0.992928
vt 0.807290 0.010178
vt 0.224513 0.680013
vt 0.842240 0.012714
vt 0.840755 0.018659
vt 0.835831 0.018030
vt 0.838026 0.009240
vt 0.322799 0.011513
vt 0.322799 0.020297
vt 0.667341 0.773196
vt 0.665146 0.764406
vt 0.006516 0.020297
vt 0.006516 0.011513
vt 0.843313 0.012170
vt 0.843149 0.006646
vt 0.011554 0.990792
vt 0.008753 0.992001
vt 0.672463 0.775790
vt 0.006516 0.008935
vt 0.011440 0.006646
vt 0.848854 0.014559
vt 0.851340 0.010178
vt 0.020272 0.990366
vt 0.680655 0.772258
vt 0.011554 0.677451
vt 0.020272 0.677026
vn -0.1935 -0.9735 0.1220
vn 0.1935 -0.9735 0.1220
vn 0.2013 -0.7618 0.6157
vn -0.2013 -0.7618 0.6157
vn 0.9779 -0.2071 -0.0269
vn 0.9766 -0.1927 -0.0956
vn 0.9779 -0.1466 -0.1487
vn 0.9780 -0.1044 -0.1804
vn 0.9742 0.0068 -0.2254
vn 0.9742 0.1754 -0.1418
vn 0.9780 0.2068 -0.0259
vn 0.9779 0.2071 0.0269
vn 0.9766 0.1927 0.0956
vn 0.9779 0.1466 0.1487
vn 0.9780 0.1044 0.1804
vn 0.9742 -0.0068 0.2254
vn 0.9742 -0.1754 0.1418
vn 0.9780 -0.2068 0.0259
vn 0.1939 -0.8787 -0.4361
vn -0.1939 -0.8787 -0.4361
vn -0.1935 -0.6888 -0.6986
vn 0.1935 -0.6888 -0.6986
vn 0.1935 -0.9729 -0.1262
vn -0.1935 -0.9729 -0.1262
vn -0.1935 -0.4914 -0.8491
vn 0.1935 -0.4914 -0.8491
vn 0.1935 0.9735 -0.1220
vn -0.1935 0.9735 -0.1220
vn -0.1935 0.9729 0.1262
vn 0.1935 0.9729 0.1262
vn 0.1935 0.4914 0.8491
vn 0.1935 0.6888 0.6986
vn -0.1935 0.6888 0.6986
vn -0.1935 0.4914 0.8491
vn 0.1939 0.8787 0.4361
vn -0.1939 0.8787 0.4361
vn -0.2013 0.0297 -0.9791
vn 0.2013 0.0297 -0.9791
vn -0.2013 0.7618 -0.6157
vn 0.2013 0.7618 -0.6157
vn -0.2013 -0.0297 0.9791
vn 0.2013 -0.0297 0.9791
vn 0.6938 -0.7141 -0.0926
vn 0.6885 -0.6496 -0.3224
vn -0.9779 -0.2071 -0.0269
vn -0.9766 -0.1927 -0.0956
vn -0.6885 -0.6496 -0.3224
vn -0.6938 -0.7141 -0.0926
vn 0.6938 -0.5056 -0.5128
vn -0.9779 -0.1466 -0.1487
vn -0.6938 -0.5056 -0.5128
vn 0.6938 0.7141 0.0926
vn 0.6885 0.6496 0.3224
vn -0.9779 0.2071 0.0269
vn -0.9766 0.1927 0.0956
vn -0.6885 0.6496 0.3224
vn -0.6938 0.7141 0.0926
vn 0.6938 0.5056 0.5128
vn -0.9779 0.1466 0.1487
vn -0.6938 0.5056 0.5128
vn -0.9742 0.1754 -0.1418
vn -0.9780 0.2068 -0.0259
vn -0.6942 0.7142 -0.0895
vn -0.6826 0.5683 -0.4593
vn 0.6826 0.5683 -0.4593
vn 0.6942 0.7142 -0.0895
vn -0.9742 0.0068 -0.2254
vn -0.6826 0.0222 -0.7304
vn 0.6826 0.0222 -0.7304
vn -0.9780 -0.1044 -0.1804
vn -0.6942 -0.3605 -0.6229
vn 0.6942 -0.3605 -0.6229
vn -0.9742 -0.1754 0.1418
vn -0.9780 -0.2068 0.0259
vn -0.6942 -0.7142 0.0895
vn -0.6826 -0.5683 0.4593
vn 0.6826 -0.5683 0.4593
vn 0.6942 -0.7142 0.0895
vn -0.9742 -0.0068 0.2254
vn -0.6826 -0.0222 0.7304
vn 0.6826 -0.0222 0.7304
vn -0.9780 0.1044 0.1804
vn -0.6942 0.3605 0.6229
vn 0.6942 0.3605 0.6229
usemtl None
s 1
f 38/1/1 65/2/2 71/3/3 44/4/4
f 28/5/5 34/6/6 31/7/7 73/8/8 79/9/9 82/10/10 76/11/11 19/12/12 25/13/13 22/14/14 61/15/15 67/16/16 70/17/17 64/18/18
f 35/19/19 17/20/20 11/21/21 32/22/22
f 29/23/23 14/24/24 17/25/20 35/26/19
f 14/24/24 29/23/23 65/2/2 38/1/1
f 11/21/21 53/27/25 74/28/26 32/22/22
f 77/29/27 50/30/28 5/31/29 20/32/30
f 62/33/31 23/34/32 2/35/33 41/36/34
f 26/37/35 8/38/36 2/35/33 23/34/32
f 59/39/37 80/40/38 74/28/26 53/27/25
f 56/41/39 83/42/40 80/40/38 59/39/37
f 47/43/41 68/44/42 62/33/31 41/36/34
f 50/30/28 77/29/27 83/45/40 56/46/39
f 44/47/4 71/48/3 68/44/42 47/43/41
f 20/32/30 5/31/29 8/49/36 26/50/35
f 34/6/6 28/5/5 30/51/43 36/52/44
f 36/53/44 30/54/43 29/23/23 35/26/19
f 13/55/45 16/56/46 18/57/47 15/58/48
f 15/59/48 18/60/47 17/25/20 14/24/24
f 31/7/7 34/6/6 36/52/44 33/61/49
f 33/62/49 36/63/44 35/19/19 32/22/22
f 16/56/46 10/64/50 12/65/51 18/57/47
f 18/66/47 12/67/51 11/21/21 17/20/20
f 25/13/13 19/12/12 21/68/52 27/69/53
f 27/70/53 21/71/52 20/32/30 26/50/35
f 4/72/54 7/73/55 9/74/56 6/75/57
f 6/76/57 9/77/56 8/49/36 5/31/29
f 22/14/14 25/13/13 27/69/53 24/78/58
f 24/79/58 27/80/53 26/37/35 23/34/32
f 7/73/55 1/81/59 3/82/60 9/74/56
f 9/83/56 3/84/60 2/35/33 8/38/36
f 55/85/61 49/86/62 51/87/63 57/88/64
f 57/89/64 51/90/63 50/30/28 56/46/39
f 76/11/11 82/10/10 84/91/65 78/92/66
f 78/93/66 84/94/65 83/45/40 77/29/27
f 58/95/67 55/85/61 57/88/64 60/96/68
f 60/97/68 57/89/64 56/46/39 59/98/37
f 82/10/10 79/9/9 81/99/69 84/91/65
f 84/100/65 81/101/69 80/40/38 83/42/40
f 52/102/70 58/95/67 60/96/68 54/103/71
f 54/104/71 60/105/68 59/39/37 53/27/25
f 79/9/9 73/8/8 75/106/72 81/99/69
f 81/101/69 75/107/72 74/28/26 80/40/38
f 43/108/73 37/109/74 39/110/75 45/111/76
f 45/112/76 39/113/75 38/1/1 44/4/4
f 64/18/18 70/17/17 72/114/77 66/115/78
f 66/116/78 72/117/77 71/3/3 65/2/2
f 46/118/79 43/108/73 45/111/76 48/119/80
f 48/120/80 45/121/76 44/47/4 47/43/41
f 70/17/17 67/16/16 69/122/81 72/114/77
f 72/117/77 69/123/81 68/124/42 71/3/3
f 40/125/82 46/118/79 48/119/80 42/126/83
f 42/127/83 48/120/80 47/43/41 41/36/34
f 67/16/16 61/15/15 63/128/84 69/122/81
f 69/129/81 63/130/84 62/33/31 68/44/42
f 61/15/15 22/14/14 24/78/58 63/128/84
f 63/130/84 24/79/58 23/34/32 62/33/31
f 1/81/59 40/125/82 42/126/83 3/82/60
f 3/84/60 42/127/83 41/36/34 2/35/33
f 14/24/24 38/1/1 39/113/75 15/59/48
f 15/58/48 39/110/75 37/109/74 13/55/45
f 5/31/29 50/30/28 51/90/63 6/76/57
f 6/75/57 51/87/63 49/86/62 4/72/54
f 53/27/25 11/21/21 12/67/51 54/104/71
f 54/103/71 12/65/51 10/64/50 52/102/70
f 28/5/5 64/18/18 66/115/78 30/51/43
f 30/54/43 66/116/78 65/2/2 29/23/23
f 73/8/8 31/7/7 33/61/49 75/106/72
f 75/107/72 33/62/49 32/22/22 74/28/26
f 19/12/12 76/11/11 78/92/66 21/68/52
f 21/71/52 78/93/66 77/29/27 20/32/30
f 37/109/74 43/108/73 46/118/79 40/125/82 1/81/59 7/73/55 4/72/54 49/86/62 55/85/61 58/95/67 52/102/70 10/64/50 16/56/46 13/55/45
